HIERARCHY
ROOT Hips
{
	OFFSET -0.001795 -0.223333 0.028219
	CHANNELS 6 Xposition Yposition Zposition Zrotation Yrotation Xrotation 
	JOINT LeftUpLeg
	{
		OFFSET 0.069520 -0.091406 -0.006815
		CHANNELS 3 Zrotation Yrotation Xrotation
		JOINT LeftLeg
		{
			OFFSET 0.034277 -0.375199 -0.004496
			CHANNELS 3 Zrotation Yrotation Xrotation
			JOINT LeftFoot
			{
				OFFSET -0.013596 -0.397961 -0.043693
				CHANNELS 3 Zrotation Yrotation Xrotation
				JOINT LeftToe
				{
					OFFSET 0.026358 -0.055791 0.119288
					CHANNELS 3 Zrotation Yrotation Xrotation
					End Site
					{
						OFFSET 0.000000 0.000000 0.000000
					}
				}
			}
		}
	}
	JOINT RightUpLeg
	{
		OFFSET -0.067670 -0.090522 -0.004320
		CHANNELS 3 Zrotation Yrotation Xrotation
		JOINT RightLeg
		{
			OFFSET -0.038290 -0.382569 -0.008850
			CHANNELS 3 Zrotation Yrotation Xrotation
			JOINT RightFoot
			{
				OFFSET 0.015774 -0.398415 -0.042312
				CHANNELS 3 Zrotation Yrotation Xrotation
				JOINT RightToe
				{
					OFFSET -0.025372 -0.048144 0.123348
					CHANNELS 3 Zrotation Yrotation Xrotation
					End Site
					{
						OFFSET 0.000000 0.000000 0.000000
					}
				}
			}
		}
	}
	JOINT Spine
	{
		OFFSET -0.002533 0.108963 -0.026696
		CHANNELS 3 Zrotation Yrotation Xrotation
		JOINT Spine1
		{
			OFFSET 0.005487 0.135180 0.001092
			CHANNELS 3 Zrotation Yrotation Xrotation
			JOINT Spine2
			{
				OFFSET 0.001457 0.052922 0.025425
				CHANNELS 3 Zrotation Yrotation Xrotation
				JOINT Neck
				{
					OFFSET -0.002778 0.213870 -0.042857
					CHANNELS 3 Zrotation Yrotation Xrotation
					JOINT Head
					{
						OFFSET 0.005152 0.064970 0.051349
						CHANNELS 3 Zrotation Yrotation Xrotation
						End Site
						{
							OFFSET 0.000000 0.000000 0.000000
						}
					}
				}
				JOINT LeftShoulder
				{
					OFFSET 0.078845 0.121749 -0.034090
					CHANNELS 3 Zrotation Yrotation Xrotation
					JOINT LeftArm
					{
						OFFSET 0.090977 0.030469 -0.008868
						CHANNELS 3 Zrotation Yrotation Xrotation
						JOINT LeftForeArm
						{
							OFFSET 0.259612 -0.012772 -0.027456
							CHANNELS 3 Zrotation Yrotation Xrotation
							JOINT LeftHand
							{
								OFFSET 0.249234 0.008986 -0.001171
								CHANNELS 3 Zrotation Yrotation Xrotation
								End Site
								{
									OFFSET 0.000000 0.000000 0.000000
								}
							}
						}
					}
				}
				JOINT RightShoulder
				{
					OFFSET -0.081759 0.118833 -0.038615
					CHANNELS 3 Zrotation Yrotation Xrotation
					JOINT RightArm
					{
						OFFSET -0.096012 0.032551 -0.009143
						CHANNELS 3 Zrotation Yrotation Xrotation
						JOINT RightForeArm
						{
							OFFSET -0.253742 -0.013329 -0.021401
							CHANNELS 3 Zrotation Yrotation Xrotation
							JOINT RightHand
							{
								OFFSET -0.255298 0.007772 -0.005559
								CHANNELS 3 Zrotation Yrotation Xrotation
								End Site
								{
									OFFSET 0.000000 0.000000 0.000000
								}
							}
						}
					}
				}
			}
		}
	}
}
MOTION
Frames: 15
Frame Time: 0.050000
0.000000 0.955568 0.000000 0.214317 8.152034 5.171086 6.042447 -0.550157 -7.607465 -2.898378 0.124288 7.752243 3.264698 9.127213 6.477563 0.000000 0.000000 0.000000 -2.610357 0.652223 -7.897892 -1.451917 0.460749 6.716175 -0.610340 -3.216319 5.191135 0.000000 0.000000 0.000000 6.182106 0.306605 -5.648423 -0.327302 0.387638 -5.337699 -4.448728 -0.874746 7.600673 5.883054 -3.487228 -7.198537 0.000000 0.000000 0.000000 -8.979374 3.489677 -2.727371 -40.338888 -21.665727 1.958989 127.973412 -70.609089 -107.589804 0.000000 0.000000 0.000000 4.893440 -16.188811 -6.724996 45.575275 -6.032278 -6.402488 121.374115 53.405108 90.260429 0.000000 0.000000 0.000000 
0.000542 0.956041 0.000801 -0.544234 8.669534 6.158982 7.031988 -0.574356 -8.049864 -3.438378 0.221010 6.609030 4.134067 10.843647 7.103197 0.000000 0.000000 0.000000 -2.465519 0.683229 -8.157796 -0.456996 0.241554 5.411253 -1.065392 -4.325719 5.662720 0.000000 0.000000 0.000000 7.699744 0.384285 -6.631895 -0.755741 0.543664 -4.710853 -4.696048 -0.497070 6.452286 6.362638 -3.914396 -6.404541 0.000000 0.000000 0.000000 -10.852851 4.262800 -3.505042 -40.181125 -21.720707 2.098638 125.859321 -68.564132 -103.350136 0.000000 0.000000 0.000000 3.598211 -18.682817 -7.456818 45.194668 -7.851050 -6.779060 121.374831 49.358967 85.312818 0.000000 0.000000 0.000000 
0.000686 0.956010 0.001708 -0.378703 8.837721 5.851034 7.072589 -0.521362 -6.630090 -2.735968 0.153181 5.055383 3.079633 9.540382 8.706274 0.000000 0.000000 0.000000 -2.328701 0.707606 -8.467305 -0.918732 0.345325 6.241735 -2.018930 -6.456699 5.720187 0.000000 0.000000 0.000000 7.897458 0.367096 -6.342802 -0.145885 0.354575 -6.161996 -5.753604 -0.420884 8.029121 7.130905 -4.457986 -6.646157 0.000000 0.000000 0.000000 -10.395795 5.372565 -3.922277 -41.647204 -20.256917 1.589957 128.782798 -68.863584 -107.246482 0.000000 0.000000 0.000000 4.196749 -18.033954 -7.340497 43.687193 -7.574850 -6.576664 122.568786 49.526157 87.493778 0.000000 0.000000 0.000000 
0.000476 0.956739 0.002751 -0.239417 10.095173 6.496402 7.402058 -0.574797 -7.339630 -2.828893 0.152320 5.037083 2.587072 9.101530 9.577773 0.000000 0.000000 0.000000 -2.631973 0.739590 -9.316486 -0.263170 0.239917 7.110258 -2.163186 -6.562719 5.061137 0.000000 0.000000 0.000000 8.247542 0.435061 -7.367657 -0.218353 0.367737 -5.462129 -5.918824 -1.294278 7.206458 6.698666 -4.087540 -6.790507 0.000000 0.000000 0.000000 -11.168592 7.119056 -4.839870 -42.400293 -19.196383 1.362174 128.518696 -68.616202 -106.599492 0.000000 0.000000 0.000000 2.008928 -19.651204 -7.510186 42.193687 -7.933453 -6.320013 124.749287 46.104453 85.357690 0.000000 0.000000 0.000000 
-0.000436 0.957479 0.003783 0.013841 10.607001 6.290813 7.077741 -0.548757 -6.464130 -2.367108 0.106451 4.371463 1.989312 8.153585 9.559762 0.000000 0.000000 0.000000 -2.795116 0.718914 -9.291031 -0.531522 0.294061 7.501006 -2.876379 -8.154053 5.133729 0.000000 0.000000 0.000000 7.994681 0.434671 -7.428094 0.423782 0.115244 -5.541473 -6.623546 -1.579329 7.311298 6.582666 -3.979932 -6.870241 0.000000 0.000000 0.000000 -11.220154 7.322982 -4.958558 -42.824974 -16.768774 0.552112 129.653498 -68.271766 -107.710718 0.000000 0.000000 0.000000 1.553900 -19.024902 -7.179228 40.865901 -7.622861 -6.017128 125.898690 45.129900 85.584718 0.000000 0.000000 0.000000 
-0.002027 0.957999 0.004499 -0.013178 11.173780 6.383782 7.555092 -0.558724 -6.354988 -2.563453 0.136205 3.907147 2.101077 8.567946 10.113805 0.000000 0.000000 0.000000 -2.988725 0.704070 -9.348050 -0.477018 0.283350 7.773598 -2.966799 -8.377711 5.584123 0.000000 0.000000 0.000000 8.140781 0.467761 -7.890805 0.388687 0.151842 -5.813024 -6.884501 -1.696062 7.800560 6.014148 -3.491076 -7.221210 0.000000 0.000000 0.000000 -11.217504 8.132355 -5.331222 -43.906747 -15.025507 -0.082297 133.729173 -68.487855 -112.916100 0.000000 0.000000 0.000000 0.854030 -19.224878 -7.124368 40.253548 -7.529570 -5.895219 126.517192 43.967455 84.962609 0.000000 0.000000 0.000000 
-0.003849 0.957707 0.004703 0.034123 11.561191 6.434106 7.651769 -0.577864 -6.736983 -2.564928 0.116670 4.583495 2.075804 8.452485 9.792684 0.000000 0.000000 0.000000 -3.012343 0.705850 -9.490619 -0.551102 0.298268 8.026207 -3.018436 -8.439147 5.366161 0.000000 0.000000 0.000000 8.140730 0.486671 -8.186708 0.270366 0.215412 -5.998512 -6.976829 -1.751236 8.136816 6.145277 -3.433513 -8.026174 0.000000 0.000000 0.000000 -11.104529 8.513270 -5.486397 -44.953025 -12.817499 -0.905029 142.070187 -68.853281 -123.797191 0.000000 0.000000 0.000000 0.524019 -19.313867 -7.102482 39.735246 -7.477125 -5.810040 126.404662 43.518147 84.351010 0.000000 0.000000 0.000000 
-0.005362 0.957421 0.004599 -0.171059 11.965881 6.204082 8.105373 -0.595914 -7.164295 -2.682065 0.098280 5.708451 2.150669 8.385669 9.164090 0.000000 0.000000 0.000000 -2.871182 0.704993 -9.403333 -0.604755 0.308920 8.267158 -3.042650 -8.454963 5.244648 0.000000 0.000000 0.000000 8.107138 0.459579 -7.889049 0.386513 0.180096 -6.100457 -7.009172 -1.103104 7.817319 6.801228 -3.831991 -8.079059 0.000000 0.000000 0.000000 -10.602403 8.679522 -5.530602 -46.392249 -10.841869 -1.675705 154.058592 -68.399751 -139.886054 0.000000 0.000000 0.000000 0.793904 -19.365199 -7.209194 38.892372 -7.787789 -5.728198 126.062519 43.466008 84.573036 0.000000 0.000000 0.000000 
-0.006348 0.957323 0.004587 -0.260525 12.110754 6.147273 8.351148 -0.611564 -7.648376 -2.926175 0.107404 6.494145 2.276394 8.531408 8.952589 0.000000 0.000000 0.000000 -2.860672 0.700325 -9.347613 -0.518589 0.293407 8.477496 -3.193697 -8.771457 5.083245 0.000000 0.000000 0.000000 8.315808 0.456610 -7.820066 -0.047207 0.378403 -6.508582 -6.749590 -0.821108 8.234846 7.249532 -3.925949 -9.167279 0.000000 0.000000 0.000000 -11.121330 9.494000 -6.054580 -47.269760 -8.983217 -2.455115 167.574609 -66.874127 -158.406165 0.000000 0.000000 0.000000 1.574748 -19.417964 -7.402819 37.914427 -7.469618 -5.545788 126.311204 43.884503 85.764204 0.000000 0.000000 0.000000 
-0.006992 0.957013 0.004918 -0.368371 12.042588 6.119509 8.472121 -0.618985 -7.988885 -3.128027 0.126811 6.823106 2.381755 8.476137 8.315328 0.000000 0.000000 0.000000 -2.888379 0.689352 -9.187074 -0.355844 0.259386 8.345770 -3.354365 -9.108346 4.733436 0.000000 0.000000 0.000000 8.342400 0.453639 -7.762792 -0.100458 0.409896 -6.738397 -6.722527 -0.033367 8.089620 7.935665 -4.248847 -9.671712 0.000000 0.000000 0.000000 -10.912342 9.952576 -6.281270 -47.172673 -7.230786 -3.116305 174.317345 -65.628488 -168.664141 0.000000 0.000000 0.000000 1.723005 -19.403691 -7.447001 37.276337 -7.888118 -5.540453 126.757922 44.221511 87.488358 0.000000 0.000000 0.000000 
-0.007439 0.957292 0.005459 -0.413684 12.142754 6.041634 8.697297 -0.613206 -7.742554 -3.091531 0.130198 6.460861 2.318681 8.485593 8.623179 0.000000 0.000000 0.000000 -2.929599 0.672173 -8.970867 -0.064814 0.197214 8.169968 -3.608370 -9.696202 4.861688 0.000000 0.000000 0.000000 8.405397 0.464883 -7.869938 -0.247963 0.485606 -7.068204 -6.669479 0.477995 8.226842 8.664716 -4.685329 -9.876874 0.000000 0.000000 0.000000 -10.514151 10.476871 -6.447945 -46.970257 -6.493309 -3.415833 178.197587 -65.111289 -174.943416 0.000000 0.000000 0.000000 2.053174 -19.732250 -7.655736 36.865407 -7.968484 -5.507045 126.160565 45.116162 88.465630 0.000000 0.000000 0.000000 
-0.007992 0.957873 0.005757 -0.483605 12.408170 5.976000 8.820256 -0.606292 -7.241571 -2.928643 0.128055 5.603769 2.141771 8.352826 9.027951 0.000000 0.000000 0.000000 -2.960578 0.658727 -8.828041 0.016760 0.178329 8.245268 -3.652017 -9.778675 4.805186 0.000000 0.000000 0.000000 8.475389 0.477752 -8.027004 -0.422199 0.558690 -7.070340 -6.611413 0.485419 8.147754 8.745794 -4.738353 -9.838942 0.000000 0.000000 0.000000 -10.066307 10.843484 -6.480472 -45.920801 -6.729062 -3.244381 177.689868 -64.780132 -174.235305 0.000000 0.000000 0.000000 2.232626 -19.861977 -7.744405 36.773857 -8.342222 -5.585566 126.013261 45.332715 88.684073 0.000000 0.000000 0.000000 
-0.008535 0.958487 0.005605 -0.793041 12.500475 5.985628 8.985085 -0.606665 -7.053590 -2.549159 0.097462 4.959881 1.925921 8.025699 9.089338 0.000000 0.000000 0.000000 -2.656905 0.684320 -8.888735 -0.074689 0.192754 8.000670 -3.753973 -10.023617 5.064996 0.000000 0.000000 0.000000 8.445579 0.469315 -7.969575 -0.160016 0.446572 -6.862712 -6.660655 0.676945 7.433809 8.991315 -4.984894 -9.358627 0.000000 0.000000 0.000000 -9.195729 10.340466 -6.032403 -44.306831 -7.701432 -2.725832 174.146408 -65.003349 -169.046792 0.000000 0.000000 0.000000 2.042544 -20.045792 -7.779137 36.906289 -9.045229 -5.717659 124.769753 45.026931 86.774238 0.000000 0.000000 0.000000 
-0.009170 0.958800 0.004957 -1.040040 12.679025 5.959445 9.167640 -0.609678 -6.918699 -2.231282 0.065518 4.701647 1.710749 7.779927 9.345966 0.000000 0.000000 0.000000 -2.250636 0.715828 -8.947367 -0.386561 0.251828 7.928323 -3.662136 -9.801080 5.011629 0.000000 0.000000 0.000000 8.352814 0.438711 -7.676412 -0.213850 0.464942 -6.747771 -6.354320 0.245619 7.104873 8.803984 -4.787652 -9.705812 0.000000 0.000000 0.000000 -8.939784 9.968648 -5.770446 -42.307145 -9.087433 -2.083029 170.021273 -64.315339 -162.217985 0.000000 0.000000 0.000000 1.938261 -20.188321 -7.800198 37.171881 -9.324328 -5.815865 124.672243 44.701925 85.831469 0.000000 0.000000 0.000000 
-0.009716 0.958521 0.004300 -1.420735 12.506168 5.882730 9.381714 -0.608153 -6.953312 -2.102908 0.045252 4.915665 1.707794 7.724877 9.249670 0.000000 0.000000 0.000000 -1.819835 0.748581 -8.961050 -0.574266 0.287917 7.746183 -3.555755 -9.568189 4.990244 0.000000 0.000000 0.000000 8.262448 0.425220 -7.495256 -0.120828 0.408246 -6.395891 -6.205173 -0.036055 6.845550 8.795522 -4.845287 -9.530027 0.000000 0.000000 0.000000 -8.588950 9.496974 -5.441885 -39.253680 -10.577376 -1.434076 164.321604 -64.395011 -153.262175 0.000000 0.000000 0.000000 2.377485 -19.908617 -7.757682 36.050366 -9.384666 -5.668387 124.919927 43.489480 83.930729 0.000000 0.000000 0.000000 
